<svg id="Ebene_2" data-name="Ebene 2" xmlns="http://www.w3.org/2000/svg" viewBox="0 0 191.65 60.95"><path d="M19.7,48.16h-9l-2.17,7H3.74l9-27.24h4.87l9,27.24H21.87ZM15.19,32.62s-.58,2.68-1.09,4.22l-2.27,7.29h6.72l-2.28-7.29c-.47-1.54-1-4.22-1-4.22Z"/><path d="M30,27.9h4.66V55.14H30Z"/><path d="M61.32,27.44a12.9,12.9,0,0,1,9.46,3.72l-2.24,3.68a11,11,0,0,0-7-2.87c-5.42,0-8.6,4.29-8.6,9.36s3.29,9.74,8.63,9.74A10.8,10.8,0,0,0,69,47.62l2.46,3.57A13.51,13.51,0,0,1,61.39,55.6c-7.84,0-13.26-6.18-13.26-14.2S53.77,27.44,61.32,27.44Z"/><path d="M75.77,27.9H91.12v4.26H80.43v7.13h8.63v4.26H80.43v7.33H91.7v4.26H75.77Z"/><path d="M96.54,27.9h4.66l9.72,15.73a43,43,0,0,1,2.13,4.22h.07s-.25-2.61-.25-4.22V27.9h4.62V55.14h-4.62l-9.72-15.69A44.24,44.24,0,0,1,101,35.23H101s.25,2.61.25,4.22V55.14H96.54Z"/><path d="M129.31,32.16h-8.42V27.9h21.49v4.26H134v23h-4.66Z"/><path d="M145.78,27.9h15.35v4.26H150.44v7.13h8.63v4.26h-8.63v7.33h11.27v4.26H145.78Z"/><path d="M166.55,27.9h8.27c2.79,0,4.05.23,5.17.77,2.57,1.23,4.19,3.83,4.19,7.44,0,3.26-1.62,6.29-4.33,7.44v.08a6.45,6.45,0,0,1,.86,1.34L186,55.14h-5.2L175.69,45h-4.48V55.14h-4.66Zm8.85,12.77c2.5,0,4-1.57,4-4.29s-1-4.22-4.7-4.22h-3.54v8.51Z"/><path d="M8.85,8.27H3.76V5.84h13V8.27H11.66V21.34H8.85Z"/><path d="M19,5.84h2.81v9.93A3.09,3.09,0,0,0,25.26,19a3.11,3.11,0,0,0,3.45-3.28V10.51h2.81v5.26c0,3.47-2.51,5.83-6.24,5.83S19,19.24,19,15.77Z"/><path d="M35.67,5.84h5.54c2.8,0,4.78,1.44,4.78,4a3.66,3.66,0,0,1-1.87,3.31v0a3.62,3.62,0,0,1,2.51,3.64c0,3.1-2.49,4.5-5.35,4.5H35.67Zm5.54,6.33a1.84,1.84,0,0,0,1.92-2,1.78,1.78,0,0,0-2-1.92H38.48v3.9Zm.29,6.75a2.09,2.09,0,0,0,2.24-2.25,2.1,2.1,0,0,0-2.24-2.23h-3v4.48Z"/><path d="M50.12,5.84h2.81v15.5H50.12Z"/><path d="M57.3,5.84h2.81l5.87,9a24.16,24.16,0,0,1,1.29,2.4h0s-.15-1.48-.15-2.4V5.84H70v15.5h-2.8l-5.87-8.93A23,23,0,0,1,60,10h0s.15,1.49.15,2.4v8.93H57.3Z"/><path d="M81.26,5.58a8.41,8.41,0,0,1,5.76,2L85.63,9.64A6.7,6.7,0,0,0,81.5,8.16a5,5,0,0,0-5.32,5.32c0,3.36,2.29,5.55,5.19,5.55a5.83,5.83,0,0,0,3.89-1.62V15.6H82.88V13.18h4.91v8.16h-2.4V20.6c0-.33,0-.66,0-.66h0a6.54,6.54,0,0,1-4.49,1.66c-4.08,0-7.6-3.16-7.6-8A7.82,7.82,0,0,1,81.26,5.58Z"/><path d="M91.34,5.84h9.28V8.27H94.16v4.06h5.22v2.42H94.16v4.17H101v2.42H91.34Z"/><path d="M104.33,5.84h2.81l5.88,9a25.55,25.55,0,0,1,1.28,2.4h0s-.16-1.48-.16-2.4V5.84H117v15.5h-2.8l-5.87-8.93A22.17,22.17,0,0,1,107,10H107s.15,1.49.15,2.4v8.93h-2.81Z"/><rect x="28.71" y="5.84" width="2.82" height="2.8"/><rect x="23.86" y="5.84" width="2.82" height="2.8"/></svg>